<svg width="52" height="52" viewBox="0 0 52 52" fill="none" xmlns="http://www.w3.org/2000/svg">
<g clip-path="url(#clip0_16_59)">
<path d="M25.91 0H25.9C11.5958 0 0 11.5958 0 25.9V25.91C0 40.2142 11.5958 51.81 25.9 51.81H25.91C40.2142 51.81 51.81 40.2142 51.81 25.91V25.9C51.81 11.5958 40.2142 0 25.91 0Z" fill="#059B7E"/>
<path d="M13.4 30.2199V32.9399L17.83 29.8399V32.3299L13.4 35.4299V38.1399L17.83 35.0399V39.7899H20.05V35.0399L24.55 38.1899V35.4799L20.05 32.3299V29.8399L24.55 32.9899V30.2699L18.94 26.3499L13.4 30.2199Z" fill="white"/>
<path d="M27.27 30.5099V39.7899H29.49V31.8899L36.18 28.5299V39.7899H38.41V24.9299L27.27 30.5099Z" fill="white"/>
<path d="M33.95 34.4199H31.73V39.7899H33.95V34.4199Z" fill="white"/>
<path d="M24.48 23.69V21.47C20.79 19.25 17.1 23.69 13.4 21.47V23.69C17.09 25.91 20.78 21.47 24.48 23.69Z" fill="white"/>
<path d="M24.48 14.8899V12.6699C20.79 10.4499 17.1 14.8899 13.4 12.6699V14.8899C17.09 17.1099 20.78 12.6699 24.48 14.8899Z" fill="white"/>
<path d="M24.48 19.2798V17.0598C20.79 14.8398 17.1 19.2798 13.4 17.0598V19.2798C17.09 21.4998 20.78 17.0598 24.48 19.2798Z" fill="white"/>
<path d="M32.4 23.7299C35.66 23.9799 38.4 21.3899 38.4 18.1799C38.4 14.9699 35.9 12.6099 32.83 12.6099C29.76 12.6099 27.04 15.3399 27.28 18.5999C27.48 21.3199 29.68 23.5199 32.4 23.7299ZM32.61 14.8399C34.55 14.7099 36.18 16.2599 36.18 18.1799C36.18 20.0999 34.68 21.5299 32.84 21.5299C31 21.5299 29.38 19.9199 29.5 17.9799C29.6 16.3199 30.95 14.9599 32.62 14.8499L32.61 14.8399Z" fill="white"/>
</g>
<defs>
<clipPath id="clip0_16_59">
<rect width="51.81" height="51.81" fill="white"/>
</clipPath>
</defs>
</svg>
