<svg width="244" height="70" viewBox="0 0 244 70" fill="none" xmlns="http://www.w3.org/2000/svg">
<path fill-rule="evenodd" clip-rule="evenodd" d="M0 5.62012H63.41V69.0301H0V5.62012ZM29.0996 13.0499V17.1299C25.7146 15.0899 22.3296 16.1099 18.9446 17.1299C15.5596 18.1499 12.1746 19.1699 8.78955 17.1299V13.0499C12.1746 15.0899 15.5596 14.0699 18.9446 13.0499C22.3296 12.0299 25.7146 11.0099 29.0996 13.0499ZM29.0996 33.2699V29.1899C25.7146 27.1499 22.3296 28.1699 18.9446 29.1899C15.5596 30.2099 12.1746 31.2299 8.78955 29.1899V33.2699C12.1746 35.3099 15.5596 34.2899 18.9446 33.2699C22.3296 32.2499 25.7146 31.2299 29.0996 33.2699ZM34.21 45.7799V62.7899H38.29V48.2999L50.55 42.1499V62.7899H54.63V35.5399L34.35 45.7099L34.21 45.7799ZM8.77979 45.2499V50.2299L16.8998 44.5499V49.1099L8.77979 54.7899V59.7599L16.8998 54.0899V62.7899H20.9798V54.0899L29.2298 59.8499V54.8799L20.9798 49.1199V44.5499L29.2298 50.3199V45.3399L18.9398 38.1499L8.77979 45.2499ZM42.3799 52.9498H46.4599V62.7898H42.3799V52.9498ZM29.0996 25.1799V21.0999C25.7146 19.0599 22.3296 20.0799 18.9446 21.0999C15.5596 22.1199 12.1746 23.1399 8.78955 21.0999V25.1799C12.1746 27.2199 15.5596 26.1999 18.9446 25.1799C22.3296 24.1599 25.7146 23.1399 29.0996 25.1799ZM54.63 23.1598C54.63 29.0598 49.61 33.7998 43.62 33.3398C38.63 32.9598 34.61 28.9198 34.24 23.9298C33.8 17.9598 38.79 12.9498 44.42 12.9498C50.05 12.9498 54.63 17.2598 54.63 23.1598ZM50.55 23.1598C50.55 19.6398 47.57 16.8098 44.01 17.0398C40.96 17.2398 38.49 19.7298 38.3 22.7798C38.08 26.3398 41.04 29.2998 44.42 29.2998C47.8 29.2998 50.55 26.6798 50.55 23.1598Z" fill="#059B7E"/>
<path d="M225.54 41.8101L223.53 47.0601H230.64V69.0701H235.89V47.0601H241.03L243.05 41.8101H225.54Z" fill="white"/>
<path d="M162.27 49.02L159.99 54.61L154.77 41.66L143.79 68.87H149.46L154.71 55.86L154.99 56.29L159.84 68.32L164.85 55.92L170.18 69.13H175.84L165 42.25L162.27 49.02Z" fill="white"/>
<path d="M99.77 69.13H105.43L110.79 55.88L116.13 69.13H121.79L110.96 42.25L99.77 69.13Z" fill="white"/>
<path d="M136.09 35.28C143.6 35.28 149.71 29.17 149.71 21.67C149.71 14.17 143.6 8.05005 136.09 8.05005C128.58 8.05005 122.47 14.16 122.47 21.67C122.47 29.18 128.58 35.28 136.09 35.28ZM136.09 13.3C140.7 13.3 144.45 17.05 144.45 21.66C144.45 26.2701 140.7 30.0201 136.09 30.0201C131.48 30.0201 127.73 26.2701 127.73 21.66C127.73 17.05 131.48 13.3 136.09 13.3Z" fill="white"/>
<path d="M129.84 58.1601H136.01L138.03 52.9101H129.84V47.0601H138.75L140.77 41.8101H124.59V69.0701L138.78 69.0601L140.8 63.8101H129.84V58.1601Z" fill="white"/>
<path d="M214.43 52.9001H205.7V41.8101H200.45V69.0701H205.7V58.1601H214.43V69.0701H219.68V41.8101H214.43V52.9001Z" fill="white"/>
<path d="M170.34 0H161.05L159.56 3.88H168.85L170.34 0Z" fill="white"/>
<path d="M92.3596 53.14H83.0696L81.5796 57.01H90.8696L92.3596 53.14Z" fill="white"/>
<path d="M159.08 25.97V8.18004H153.82V35.47H159.34L170.19 18.1V35.47H175.45V8.17004H170.2L159.08 25.97Z" fill="white"/>
<path d="M85.9498 41.4599C83.4198 41.4599 80.9598 42.16 78.7998 43.5L80.7198 48.57C82.2098 47.3699 84.0498 46.72 85.9498 46.72C90.5598 46.72 94.3098 50.47 94.3098 55.08C94.3098 59.69 90.5598 63.4399 85.9498 63.4399C83.7398 63.4399 81.6098 62.55 80.0398 60.97L78.0698 66.17C80.3798 67.82 83.0998 68.69 85.9498 68.69C93.4598 68.69 99.5698 62.5799 99.5698 55.07C99.5698 47.56 93.4598 41.45 85.9498 41.45V41.4599Z" fill="white"/>
<path d="M119.64 26.68C119.66 24.22 118.35 21.01 114.59 19.34L114.34 19.23L114.46 18.98C114.92 18 115.16 16.92 115.16 15.85C115.16 11.97 112.04 8.04004 106.08 8.04004H101.32V35.27H109.38C116 35.27 119.61 30.84 119.65 26.67L119.64 26.68ZM106.57 12.25H106.84C110.26 12.25 110.53 14.68 110.53 15.42C110.53 17.14 109.46 18.99 107.11 18.99C107.07 18.99 107.02 18.99 106.97 18.99C106.93 18.99 106.89 18.99 106.86 18.99H106.58V12.25H106.57ZM106.57 22.5H109.32C112.35 22.56 114.39 24.1 114.39 26.33C114.39 28.56 112.67 30.96 109.37 30.96H106.57V22.5Z" fill="white"/>
<path d="M85.1798 35.29H90.4398V13.29H95.5798L97.5998 8.03003H80.0898L78.0698 13.29H85.1798V35.29Z" fill="white"/>
<path d="M185.06 58.1601H191.22L193.24 52.9101H185.06V47.0601H193.97L195.99 41.8101H179.8V69.0701L193.99 69.0601L196.01 63.8101H185.06V58.1601Z" fill="white"/>
</svg>
