<svg width="244" height="70" viewBox="0 0 244 70" fill="none" xmlns="http://www.w3.org/2000/svg">
<path d="M63.41 5.62H0V69.03H63.41V5.62Z" fill="#059B7E"/>
<path d="M8.77979 45.25V50.23L16.8998 44.55V49.11L8.77979 54.79V59.76L16.8998 54.09V54.08V62.79H20.9798V54.09L29.2298 59.85V54.88L20.9798 49.12V44.55L29.2298 50.32V45.34L18.9398 38.15L8.77979 45.25Z" fill="white"/>
<path d="M34.21 45.78V62.79H38.29V48.3L50.55 42.15V62.79H54.63V35.54L34.35 45.71L34.21 45.78Z" fill="white"/>
<path d="M46.4599 52.95H42.3799V62.79H46.4599V52.95Z" fill="white"/>
<path d="M29.0996 33.27V29.19C22.3296 25.11 15.5596 33.27 8.78955 29.19V33.27C15.5596 37.35 22.3296 29.19 29.0996 33.27Z" fill="white"/>
<path d="M29.0996 17.13V13.05C22.3296 8.96999 15.5596 17.13 8.78955 13.05V17.13C15.5596 21.21 22.3296 13.05 29.0996 17.13Z" fill="white"/>
<path d="M29.0996 25.18V21.1C22.3296 17.02 15.5596 25.18 8.78955 21.1V25.18C15.5596 29.26 22.3296 21.1 29.0996 25.18Z" fill="white"/>
<path d="M43.62 33.34C49.61 33.7999 54.63 29.06 54.63 23.16C54.63 17.26 50.05 12.95 44.42 12.95C38.79 12.95 33.8 17.96 34.24 23.93C34.61 28.92 38.63 32.96 43.62 33.34ZM44.01 17.04C47.57 16.81 50.55 19.64 50.55 23.16C50.55 26.68 47.8 29.2999 44.42 29.2999C41.04 29.2999 38.08 26.34 38.3 22.78C38.49 19.73 40.96 17.24 44.01 17.04Z" fill="white"/>
<path d="M225.54 41.8101L223.53 47.0601H230.64V69.0701H235.89V47.0601H241.03L243.05 41.8101H225.54Z" fill="#043E52"/>
<path d="M162.27 49.02L159.99 54.61L154.77 41.66L143.79 68.87H149.46L154.71 55.86L154.99 56.29L159.84 68.32L164.85 55.92L170.18 69.13H175.84L165 42.25L162.27 49.02Z" fill="#043E52"/>
<path d="M99.77 69.13H105.43L110.79 55.88L116.13 69.13H121.79L110.96 42.25L99.77 69.13Z" fill="#043E52"/>
<path d="M136.09 35.28C143.6 35.28 149.71 29.17 149.71 21.67C149.71 14.17 143.6 8.05005 136.09 8.05005C128.58 8.05005 122.47 14.16 122.47 21.67C122.47 29.18 128.58 35.28 136.09 35.28ZM136.09 13.3C140.7 13.3 144.45 17.05 144.45 21.66C144.45 26.2701 140.7 30.0201 136.09 30.0201C131.48 30.0201 127.73 26.2701 127.73 21.66C127.73 17.05 131.48 13.3 136.09 13.3Z" fill="#043E52"/>
<path d="M129.84 58.1601H136.01L138.03 52.9101H129.84V47.0601H138.75L140.77 41.8101H124.59V69.0701L138.78 69.0601L140.8 63.8101H129.84V58.1601Z" fill="#043E52"/>
<path d="M214.43 52.9001H205.7V41.8101H200.45V69.0701H205.7V58.1601H214.43V69.0701H219.68V41.8101H214.43V52.9001Z" fill="#043E52"/>
<path d="M170.34 0H161.05L159.56 3.88H168.85L170.34 0Z" fill="#043E52"/>
<path d="M92.3596 53.14H83.0696L81.5796 57.01H90.8696L92.3596 53.14Z" fill="#043E52"/>
<path d="M159.08 25.97V8.18004H153.82V35.47H159.34L170.19 18.1V35.47H175.45V8.17004H170.2L159.08 25.97Z" fill="#043E52"/>
<path d="M85.9498 41.4599C83.4198 41.4599 80.9598 42.16 78.7998 43.5L80.7198 48.57C82.2098 47.3699 84.0498 46.72 85.9498 46.72C90.5598 46.72 94.3098 50.47 94.3098 55.08C94.3098 59.69 90.5598 63.4399 85.9498 63.4399C83.7398 63.4399 81.6098 62.55 80.0398 60.97L78.0698 66.17C80.3798 67.82 83.0998 68.69 85.9498 68.69C93.4598 68.69 99.5698 62.5799 99.5698 55.07C99.5698 47.56 93.4598 41.45 85.9498 41.45V41.4599Z" fill="#043E52"/>
<path d="M119.64 26.68C119.66 24.22 118.35 21.01 114.59 19.34L114.34 19.23L114.46 18.98C114.92 18 115.16 16.92 115.16 15.85C115.16 11.97 112.04 8.04004 106.08 8.04004H101.32V35.27H109.38C116 35.27 119.61 30.84 119.65 26.67L119.64 26.68ZM106.57 12.25H106.84C110.26 12.25 110.53 14.68 110.53 15.42C110.53 17.14 109.46 18.99 107.11 18.99C107.07 18.99 107.02 18.99 106.97 18.99C106.93 18.99 106.89 18.99 106.86 18.99H106.58V12.25H106.57ZM106.57 22.5H109.32C112.35 22.56 114.39 24.1 114.39 26.33C114.39 28.56 112.67 30.96 109.37 30.96H106.57V22.5Z" fill="#043E52"/>
<path d="M85.1798 35.29H90.4398V13.29H95.5798L97.5998 8.03003H80.0898L78.0698 13.29H85.1798V35.29Z" fill="#043E52"/>
<path d="M185.06 58.1601H191.22L193.24 52.9101H185.06V47.0601H193.97L195.99 41.8101H179.8V69.0701L193.99 69.0601L196.01 63.8101H185.06V58.1601Z" fill="#043E52"/>
</svg>
