<svg width="24" height="19" viewBox="0 0 24 19" fill="none" xmlns="http://www.w3.org/2000/svg">
<path d="M20.7277 0H3.27234C1.46662 0 0 1.41926 0 3.16667V15.8333C0 17.5807 1.46662 19 3.27234 19H20.7277C22.5334 19 24 17.5807 24 15.8333V3.16667C24 1.41926 22.5334 0 20.7277 0ZM3.27234 2.11111H20.7277C21.3296 2.11111 21.8184 2.5842 21.8184 3.16667V3.64249L12.544 9.34413C12.2134 9.54649 11.7866 9.54375 11.4617 9.3496L2.18156 3.64249V3.16667C2.18156 2.5842 2.67043 2.11111 3.27234 2.11111ZM20.7277 16.8889H3.27234C2.67043 16.8889 2.18156 16.4158 2.18156 15.8333V6.14191L10.2974 11.1326C10.8146 11.4443 11.4052 11.6029 11.9986 11.6029C12.592 11.6029 13.1883 11.4443 13.7082 11.1298L21.8184 6.14191V15.8333C21.8184 16.4158 21.3296 16.8889 20.7277 16.8889Z" fill="#04806B"/>
</svg>
