<svg width="20" height="24" viewBox="0 0 20 24" fill="none" xmlns="http://www.w3.org/2000/svg">
<path d="M10.0029 24C9.76972 24 9.53368 23.9265 9.33506 23.7824C8.95509 23.5026 0 16.83 0 9.81818C0 4.4032 4.48762 0 10 0C15.5124 0 20 4.40603 20 9.81818C20 16.83 11.0478 23.5026 10.6649 23.7824C10.4663 23.9265 10.2332 24 9.99712 24H10.0029ZM10.0029 2.17899C5.71387 2.17899 2.2251 5.60434 2.2251 9.81536C2.2251 14.7386 8.00806 19.8822 10.0029 21.5101C11.9977 19.8822 17.7807 14.7386 17.7807 9.81536C17.7807 5.60434 14.2919 2.17899 10.0029 2.17899Z" fill="#04806B"/>
<path d="M10.0029 14.1821C7.55325 14.1821 5.55844 12.2235 5.55844 9.81842C5.55844 7.41333 7.55325 5.45478 10.0029 5.45478C12.4525 5.45478 14.4473 7.41333 14.4473 9.81842C14.4473 12.2235 12.4525 14.1821 10.0029 14.1821ZM10.0029 7.63377C8.77663 7.63377 7.78066 8.61163 7.78066 9.81559C7.78066 11.0195 8.77663 11.9974 10.0029 11.9974C11.2291 11.9974 12.2251 11.0195 12.2251 9.81559C12.2251 8.61163 11.2291 7.63377 10.0029 7.63377Z" fill="#04806B"/>
</svg>
