<svg width="24" height="24" viewBox="0 0 24 24" fill="none" xmlns="http://www.w3.org/2000/svg">
<path d="M20.7267 24C20.6188 24 20.5165 23.9943 20.4142 23.9858C16.869 23.6002 13.4316 22.3811 10.4573 20.4532C7.69895 18.7038 5.30702 16.3166 3.54858 13.5551C1.61401 10.581 0.389639 7.13337 0.0146573 3.59787C-0.0677251 2.70478 0.199308 1.85422 0.761781 1.17944C1.32425 0.507501 2.11683 0.0935617 2.99179 0.014176C3.08837 0.00567041 3.1878 0 3.28439 0H6.574C8.25006 0.0170112 9.62215 1.19929 9.85225 2.82386C9.98009 3.80201 10.2187 4.75464 10.5624 5.67041C11.0113 6.86403 10.7215 8.22493 9.821 9.13219L9.03127 9.92038C10.321 11.939 12.0368 13.6515 14.0594 14.9387L14.8463 14.1533C15.7611 13.2489 17.1246 12.9597 18.3206 13.4105C19.2325 13.7507 20.1898 13.9889 21.1614 14.1165C22.8204 14.349 24.0334 15.7751 23.9993 17.4365V20.7083C24.005 22.5144 22.5363 23.9943 20.721 24H20.7267ZM6.59957 2.18878H3.28723C2.89804 2.21996 2.63385 2.35889 2.44636 2.58287C2.25887 2.80685 2.1708 3.09037 2.19637 3.3824C2.53442 6.56066 3.63948 9.67655 5.39224 12.3757C6.98307 14.8763 9.14206 17.0311 11.6391 18.6131C14.3378 20.3596 17.4456 21.4625 20.633 21.8084C21.3205 21.8084 21.8119 21.3151 21.8091 20.7112V17.4223C21.8091 17.4223 21.8091 17.4053 21.8091 17.3968C21.8233 16.8411 21.417 16.362 20.8659 16.2854C19.741 16.138 18.6246 15.8601 17.5536 15.4604C17.153 15.3073 16.6985 15.4065 16.3946 15.707L15.0054 17.0934C14.656 17.4422 14.1163 17.5131 13.6873 17.2721C10.7698 15.6163 8.35232 13.2035 6.69615 10.2946C6.45185 9.86651 6.52571 9.32782 6.87512 8.97909L8.2671 7.58984C8.56254 7.29214 8.65913 6.83851 8.50857 6.43875C8.10802 5.36704 7.82962 4.24997 7.6819 3.12156C7.60804 2.59421 7.13931 2.19161 6.59673 2.19161L6.59957 2.18878Z" fill="#04806B"/>
</svg>
