<svg width="44" height="44" viewBox="0 0 44 44" fill="none" xmlns="http://www.w3.org/2000/svg">
<path d="M23.1825 26.2807H6.9025V19.7593H23.1786C24.1293 19.7593 24.7893 19.9282 25.1232 20.2189C25.4532 20.5136 25.6614 21.0557 25.6614 21.8493V24.1907C25.6614 25.0275 25.4571 25.5696 25.1232 25.8643C24.7932 26.1589 24.1293 26.2807 23.1786 26.2807H23.1825ZM24.2982 13.6111H0V41.5H6.9025V32.425H19.6232L25.6614 41.5H33.3929L26.7379 32.3818C29.1932 32.0125 30.2932 31.2504 31.2007 29.9971C32.1082 28.7439 32.5639 26.7364 32.5639 24.0571V21.9671C32.5639 20.38 32.3989 19.1229 32.1082 18.1643C31.8175 17.2018 31.3225 16.365 30.6193 15.6146C29.8768 14.9036 29.0479 14.4007 28.0579 14.0668C27.0639 13.7721 25.8225 13.6071 24.2982 13.6071V13.6111Z" fill="#059B7E"/>
<path d="M38.6964 13.6071C41.6271 13.6071 44 11.2343 44 8.30357C44 5.37286 41.6271 3 38.6964 3C35.7657 3 33.3929 5.37286 33.3929 8.30357C33.3929 11.2343 35.7657 13.6071 38.6964 13.6071Z" fill="#059B7E"/>
</svg>
