<svg width="100" height="100" viewBox="0 0 100 100" fill="none" xmlns="http://www.w3.org/2000/svg">
<rect width="100" height="100" rx="50" fill="white"/>
<path d="M68.1512 44.5002L64.9572 41.0074L65.6523 39.8323C66.0317 39.1906 65.9477 38.3897 65.4454 37.8393L62.2996 34.3991L62.9916 33.2302C63.3695 32.5916 63.2793 31.766 62.7708 31.2233L57.7993 25.9091L57.451 25.5906L56.5631 25.5813L51.2868 31.2233C50.7799 31.766 50.6897 32.5901 51.066 33.2286L51.7564 34.3975L49.0056 37.4048L43.0405 32.6504C42.1867 31.9685 40.9536 31.9809 40.1123 32.6782L32.2407 39.1999C31.712 39.639 31.4088 40.2838 31.4088 40.9672V49.1278C31.4088 50.3957 32.446 51.4285 33.7227 51.4285H49.7458C51.0209 51.4285 52.0597 50.3972 52.0597 49.1278V48.7583H56.0328V51.7084H58.0699V48.7583L66.2976 48.7567C66.9896 48.7567 67.6054 48.3455 67.8682 47.7115L68.4607 46.2782C68.7095 45.6783 68.5866 44.9795 68.1465 44.4986L68.1512 44.5002ZM50.1501 49.1294C50.1501 49.3505 49.9697 49.5298 49.7458 49.5298H33.7227C33.5003 49.5298 33.3199 49.3505 33.3199 49.1294V40.9687C33.3199 40.8497 33.3728 40.7368 33.4645 40.6595L41.3361 34.1378C41.4108 34.0759 41.5025 34.045 41.5943 34.045C41.686 34.045 41.7731 34.0744 41.8462 34.1331L49.9977 40.6317C50.0941 40.7074 50.1485 40.8218 50.1485 40.944V49.1278L50.1501 49.1294ZM66.0737 46.7313L52.0597 46.7328V40.944C52.0597 40.242 51.744 39.588 51.1935 39.1489L50.5995 38.6742L53.4328 35.5772C53.9366 35.0268 54.0206 34.2259 53.6412 33.5842L52.9523 32.4184L57.028 28.0583L61.1069 32.4169L60.4165 33.5842C60.037 34.2259 60.121 35.0268 60.6233 35.5772L63.7691 39.0175L63.074 40.1925C62.6946 40.8342 62.7786 41.6351 63.2808 42.1856L66.4982 45.7031L66.0737 46.7297V46.7313Z" fill="#52B848"/>
<path d="M38.3987 44.5218L40.3938 42.9695C40.725 42.7128 40.7825 42.2366 40.5244 41.9088C40.2663 41.581 39.7873 41.5207 39.4576 41.7789L36.6399 43.9714V42.3726C36.6399 41.9552 36.2994 41.6166 35.8795 41.6166C35.4596 41.6166 35.1191 41.9552 35.1191 42.3726V47.1719C35.1191 47.5894 35.4596 47.928 35.8795 47.928C36.2994 47.928 36.6399 47.5894 36.6399 47.1719V45.8902L37.1951 45.4572L39.3799 47.6976C39.5292 47.8507 39.7267 47.9265 39.9257 47.9265C40.1247 47.9265 40.3067 47.8553 40.4544 47.7131C40.7561 47.4224 40.7639 46.9446 40.47 46.6447L38.3987 44.5187V44.5218Z" fill="#52B848"/>
<path d="M42.7251 70.946L42.7329 70.9614H43.8587L43.8494 70.9274C43.5291 69.774 42.4732 69.0303 41.1607 69.0303C39.5559 69.0303 38.3477 70.1914 38.3477 71.7314C38.3477 73.2714 39.5575 74.4187 41.1607 74.4187C42.481 74.4187 43.5368 73.6734 43.8494 72.5215L43.8587 72.4875H42.7329L42.7251 72.5014C42.439 73.0642 41.8683 73.3858 41.1592 73.3858C40.1329 73.3858 39.4144 72.7055 39.4144 71.7314C39.4144 70.7573 40.1158 70.0616 41.1592 70.0616C41.8792 70.0616 42.4499 70.3832 42.7251 70.946Z" fill="#52B848"/>
<path d="M45.4713 69.14V74.3089H49.5611V73.276H46.5412V69.14H45.4713Z" fill="#52B848"/>
<path d="M52.9837 74.3955C54.3692 74.3955 55.3769 73.3394 55.3769 71.8845V69.1385H54.307V71.8845C54.307 72.755 53.7628 73.3642 52.9837 73.3642C52.2046 73.3642 51.6604 72.7426 51.6604 71.8845V69.1385H50.5905V71.8845C50.5905 73.3162 51.6199 74.3955 52.9837 74.3955Z" fill="#52B848"/>
<path d="M57.0361 69.14V74.3089H59.6315C60.8227 74.3089 61.6546 73.7121 61.6546 72.857C61.6546 72.3824 61.3794 71.9865 60.8786 71.7422L60.6983 71.6541L60.8615 71.5366C61.2176 71.2799 61.4229 70.9042 61.4229 70.5038C61.4229 69.6874 60.7029 69.14 59.6331 69.14H57.0361ZM58.106 70.0693H59.6331C60.0825 70.0693 60.3981 70.3136 60.3981 70.6646C60.3981 70.9893 60.0623 71.2444 59.6331 71.2444H58.106V70.0693ZM59.6315 73.3719H58.1045V72.1458H59.6315C60.2333 72.1458 60.577 72.37 60.577 72.7627C60.577 73.1554 60.2146 73.3719 59.6315 73.3719Z" fill="#52B848"/>
<path d="M9.30232 64.33V54.9216H11.1948V58.7654H12.2771L15.9672 54.9216H18.5361L14.0483 59.6266L18.8876 64.33H16.2518L12.2367 60.4863H11.1964V64.33H9.30232Z" fill="#043542"/>
<path d="M21.7131 66.9786L22.6725 64.3301H20.7941L18.334 57.6089H20.3353L22.1329 62.5288H23.3365L25.1217 57.6089H27.1091L23.716 66.9771H21.7146L21.7131 66.9786Z" fill="#043542"/>
<path d="M27.7559 61.9922H29.5131C29.5131 62.7174 30.2969 63.175 31.2983 63.175C32.2438 63.175 32.8534 62.8395 32.8534 62.3154C32.8534 61.7649 32.2593 61.4279 31.1506 61.4279H30.5021V60.3517H31.1241C32.2065 60.3517 32.6652 60.0564 32.6652 59.5184C32.6652 59.0205 32.0976 58.7113 31.219 58.7113C30.3404 58.7113 29.7044 59.1689 29.7044 59.7874H27.9472C27.9472 58.4562 29.353 57.4218 31.1506 57.4218C33.1784 57.4218 34.5297 58.1887 34.5297 59.3297C34.5297 60.0286 34.1378 60.5388 33.3541 60.8481C34.2591 61.1712 34.7194 61.7356 34.7194 62.5009C34.7194 63.7239 33.3136 64.531 31.219 64.531C29.2861 64.531 27.759 63.4564 27.759 61.9907L27.7559 61.9922Z" fill="#043542"/>
<path d="M36.1096 57.6104H38.0021V60.0966H42.4231V57.6104H44.3156V64.3316H42.4231V61.8314H38.0021V64.3316H36.1096V57.6104Z" fill="#043542"/>
<path d="M47.5874 61.4403C47.7895 62.4082 48.6557 63.0529 49.7909 63.0529C50.601 63.0529 51.251 62.7576 51.6025 62.2737H53.5214C53.0082 63.6451 51.5605 64.5311 49.71 64.5311C47.3852 64.5311 45.6405 63.0127 45.6405 60.9826C45.6405 58.9525 47.3712 57.4079 49.71 57.4079C52.0488 57.4079 53.7515 58.8458 53.7515 60.9826C53.7515 61.131 53.7515 61.2918 53.7251 61.4403H47.5874ZM51.8046 60.5002C51.6149 59.5462 50.8172 58.9278 49.71 58.9278C48.6028 58.9278 47.7911 59.5601 47.5874 60.5002H51.8046Z" fill="#043542"/>
<path d="M60.7134 57.6104H62.6059V64.3316H60.7134V61.5624C60.1459 62.3293 59.2937 62.7993 58.3202 62.7993C56.3873 62.7993 55.0484 61.1867 55.0484 58.9154V57.6119H56.9409V58.9154C56.9409 60.1523 57.7122 61.0661 58.8194 61.0661C59.9266 61.0661 60.7119 60.2188 60.7119 59.0638V57.6119L60.7134 57.6104Z" fill="#043542"/>
<path d="M70.42 64.3301V60.2173L65.8777 64.3301H64.3102V57.6089H66.2027V61.6552L70.731 57.6089H72.3125V64.3301H70.42Z" fill="#043542"/>
<path d="M75.9093 61.6428H74.0168V54.9216H75.9093V57.4357H76.7474L79.0722 54.9216H81.5587L78.4626 58.2814L81.8293 61.6413H79.2604L76.7319 59.1411H75.9077V61.6413L75.9093 61.6428Z" fill="#043542"/>
<path d="M88.8052 64.3301V60.2173L84.2629 64.3301H82.6954V57.6089H84.5879V61.6552L89.1162 57.6089H90.6977V64.3301H88.8052Z" fill="#043542"/>
</svg>
