<svg width="44" height="44" viewBox="0 0 44 44" fill="none" xmlns="http://www.w3.org/2000/svg">
<path fill-rule="evenodd" clip-rule="evenodd" d="M17.0975 41.7835C16.1776 42.6662 15.3785 43.4068 14.2403 43.6406C12.7844 43.9407 11.7494 43.2898 11.5779 41.8107C11.4688 40.8675 11.4902 39.9068 11.4883 38.9539C11.4805 35.261 11.5 31.5662 11.4805 27.8733C11.4785 27.3472 11.5838 27.1036 12.1607 27.1679C12.9305 27.2536 13.9655 26.8385 14.4059 27.3394C14.7899 27.7739 14.5424 28.7834 14.5424 29.5376C14.5482 32.8641 14.5424 36.1906 14.5424 39.519C14.5424 39.9575 14.4839 40.4369 14.9828 40.6668C15.4447 40.8773 15.8209 40.6278 16.201 40.3823C16.7915 40.0023 17.0858 39.556 17.0761 38.7746C17.0332 35.1304 17.0819 31.4863 17.0761 27.8421C17.0761 27.353 17.1833 27.125 17.7212 27.1679C18.2552 27.2108 18.8009 27.2186 19.3349 27.1679C19.9645 27.1075 20.1594 27.2907 20.1652 27.961C20.2081 32.4373 20.1945 36.9116 20.1399 41.3879C20.134 41.9257 20.1184 42.4655 20.1399 43.0014C20.1555 43.3814 20.0229 43.5237 19.637 43.51C18.9783 43.4847 18.3156 43.4769 17.6549 43.512C17.1833 43.5373 17.0585 43.3405 17.0936 42.9137C17.1189 42.6019 17.0975 42.2882 17.0975 41.7854V41.7835Z" fill="#059B7E"/>
<path fill-rule="evenodd" clip-rule="evenodd" d="M4.55575 34.0099C4.55575 31.0985 4.54406 28.189 4.56744 25.2795C4.57134 24.7729 4.44466 24.5936 3.92038 24.6209C3.11544 24.6637 2.3066 24.615 1.49777 24.6404C1.10797 24.6521 0.989079 24.5078 1.00077 24.1298C1.02416 23.3717 1.02221 22.6137 1.00077 21.8556C0.991028 21.4951 1.07873 21.3236 1.48218 21.3236C4.68634 21.3294 7.89049 21.3236 11.0966 21.3041C11.4942 21.3022 11.5955 21.4522 11.5839 21.8205C11.5605 22.5786 11.5527 23.3367 11.58 24.0947C11.5955 24.5098 11.4611 24.656 11.042 24.6404C10.2839 24.6131 9.52376 24.6696 8.76754 24.6209C8.19649 24.5838 8.03472 24.7573 8.03667 25.3419C8.05811 30.5256 8.04641 35.7131 8.04446 40.8968C8.04446 41.5574 8.00159 42.22 8.04641 42.8767C8.08344 43.4126 7.87685 43.5432 7.3818 43.5159C6.67432 43.4789 5.96098 43.473 5.25349 43.5159C4.69803 43.551 4.5499 43.358 4.55575 42.8104C4.58109 39.8756 4.56744 36.9408 4.56744 34.006H4.55575V34.0099Z" fill="#059B7E"/>
<path fill-rule="evenodd" clip-rule="evenodd" d="M13.7043 7.31798C14.252 5.06134 14.8035 2.85926 15.3064 0.643536C15.4233 0.127119 15.6318 -0.0346267 16.1405 0.00824562C16.6999 0.0550154 17.2671 0.0491692 17.8264 0.00824562C18.378 -0.0307292 18.4871 0.125169 18.3195 0.659125C17.653 2.77936 17.156 4.9639 16.351 7.02762C15.1719 10.0423 14.9497 13.133 15.1095 16.3036C15.1426 16.9623 15.0998 17.6249 15.1232 18.2855C15.1387 18.6889 15.0082 18.8545 14.5833 18.8312C13.9986 18.8 13.4061 18.7922 12.8214 18.8312C12.3107 18.8662 12.1548 18.6947 12.1626 18.1783C12.1938 16.3679 12.1373 14.5556 12.1919 12.7472C12.223 11.7202 11.995 10.7673 11.6968 9.80653C10.7438 6.72751 9.81797 3.63875 8.85907 0.55974C8.71874 0.109581 8.82009 -0.00734391 9.26251 0.0101948C9.8745 0.0335797 10.4884 0.0511171 11.0965 0.0043473C11.6013 -0.0346276 11.7611 0.189479 11.8703 0.635741C12.3809 2.72284 12.9227 4.80215 13.4529 6.88536C13.4879 7.01982 13.4685 7.17962 13.7023 7.31408L13.7043 7.31798Z" fill="#059B7E"/>
<path fill-rule="evenodd" clip-rule="evenodd" d="M32.5414 17.4436C32.0541 17.9113 31.6546 18.3011 31.1673 18.5798C29.3528 19.6204 27.9067 18.837 27.8696 16.7557C27.8365 14.9473 27.854 13.1369 27.854 11.3265C27.854 9.44405 27.8891 7.55962 27.8501 5.67713C27.8384 5.07302 28.0392 4.91128 28.5947 4.96584C29.0059 5.00677 29.4288 5.00677 29.8401 4.96584C30.3682 4.91323 30.493 5.12564 30.4891 5.62841C30.4657 8.80681 30.4715 11.9852 30.4735 15.1636C30.4735 15.4325 30.4676 15.7054 30.5183 15.9665C30.5963 16.3777 30.8828 16.518 31.2843 16.442C31.9879 16.3056 32.5667 15.6118 32.5687 14.8908C32.5745 11.8098 32.594 8.72692 32.5706 5.64595C32.5667 5.08861 32.7265 4.95025 33.2703 4.95415C35.2096 4.96974 35.2115 4.9483 35.2115 6.88535C35.2115 10.5782 35.1842 14.2691 35.2271 17.962C35.2349 18.7045 35.001 18.9227 34.3228 18.8136C34.1805 18.7902 34.0304 18.8097 33.8823 18.8097C33.0429 18.8097 32.596 18.3537 32.5414 17.4417V17.4436Z" fill="#059B7E"/>
<path fill-rule="evenodd" clip-rule="evenodd" d="M31.4598 28.762C30.9219 27.3374 29.6316 26.669 28.1563 27.0354C27.4449 27.2127 26.8777 27.6297 26.3924 28.1656C26.2365 28.2046 26.1936 28.3352 26.1917 28.1481C26.1741 26.2812 26.1839 23.8609 26.1761 21.994C26.1761 21.7465 26.2852 21.4425 25.948 21.2963C25.1645 21.2963 24.381 21.3178 23.5995 21.2846C23.1532 21.2652 23.005 21.3996 23.0167 21.8576C23.0479 23.056 23.0284 24.2545 23.0304 25.453C23.0323 31.2252 23.0421 36.9954 23.0265 42.7676C23.0265 43.3171 23.1278 43.5724 23.7398 43.5178C24.3713 43.4613 25.0125 43.4847 25.6479 43.512C26.0611 43.5295 26.2345 43.3912 26.1936 42.9702C26.1819 42.8475 26.1273 42.6701 26.3612 42.598C26.4801 42.6974 26.6068 42.8066 26.7374 42.9118C28.8501 44.613 31.337 43.6913 31.7814 41.0351C31.834 40.7233 31.8399 40.4018 31.8399 40.0842C31.8477 37.0519 31.8496 34.0197 31.8496 30.9855C31.8496 30.2216 31.7288 29.4713 31.4598 28.76V28.762ZM27.9808 41.0098C27.4215 41.2359 26.944 40.9845 26.4938 40.6396C26.215 40.4271 26.2131 40.1641 26.215 39.862C26.2248 38.3459 26.2189 36.8298 26.2189 35.3117H26.2267C26.2267 33.7956 26.2599 32.2775 26.2131 30.7614C26.1897 30.0072 26.6419 29.7636 27.2129 29.6467C27.8191 29.522 28.2712 29.8045 28.4622 30.4009C28.5499 30.6737 28.5792 30.9777 28.5811 31.2661C28.5928 34.0781 28.5948 36.8921 28.5928 39.7042C28.5928 40.2303 28.5538 40.774 27.9808 41.0059V41.0098Z" fill="#059B7E"/>
<path fill-rule="evenodd" clip-rule="evenodd" d="M42.5496 37.5956C41.7915 37.6053 41.0313 37.6151 40.2751 37.5917C39.8912 37.58 39.7606 37.7203 39.7586 38.0984C39.7586 38.8058 39.8249 39.5151 39.6534 40.2186C39.556 40.6181 39.3299 40.8461 38.9362 40.963C38.0513 41.2242 37.3789 40.8188 37.3049 39.8327C37.2172 38.6655 37.2717 37.4865 37.2249 36.3153C37.2055 35.8398 37.4004 35.7384 37.8233 35.754C38.5815 35.7794 39.3396 35.7618 40.0997 35.7618C40.9066 35.7618 41.7155 35.7521 42.5223 35.7657C42.8537 35.7716 43.0057 35.6839 42.9998 35.3136C42.9745 33.8209 43.0388 32.3242 42.955 30.8374C42.8361 28.723 41.6999 27.3004 39.9399 26.8834C36.7591 26.1292 34.089 28.1364 34.0188 31.4122C33.9623 34.1015 34.0091 36.7947 34.0188 39.4878C34.0208 40.0549 34.1553 40.6044 34.3326 41.1404C34.9329 42.9683 36.5467 44.0342 38.6497 43.9992C40.741 43.966 42.2027 42.8864 42.7621 40.9903C43.0505 40.0081 42.9687 39.0026 42.9979 38.0029C43.0076 37.658 42.8439 37.5956 42.5516 37.6014L42.5496 37.5956ZM37.2074 31.9306C37.2152 31.5155 37.2308 31.0965 37.2971 30.6892C37.4062 30.015 37.8311 29.6681 38.521 29.6681C39.1856 29.6681 39.5754 30.0286 39.706 30.6522C39.8561 31.3752 39.7586 32.1157 39.7723 32.8465C39.7781 33.1213 39.6222 33.1642 39.3981 33.1583C39.0804 33.1505 38.7627 33.1564 38.4431 33.1583C37.1938 33.1583 37.1879 33.1583 37.2074 31.9325V31.9306Z" fill="#059B7E"/>
<path fill-rule="evenodd" clip-rule="evenodd" d="M25.7161 7.70577C25.5972 5.78236 23.9523 4.49619 21.9623 4.57999C19.6606 4.67742 18.2768 5.97334 18.2534 8.06629C18.2397 9.28815 18.2514 10.5081 18.2514 11.7299C18.2573 11.7299 18.2612 11.7299 18.2651 11.7299C18.2651 12.4139 18.2631 13.0979 18.2651 13.7819C18.269 14.466 18.2456 15.1519 18.2924 15.832C18.4249 17.7593 19.6352 18.9773 21.5491 19.1585C23.8528 19.3748 25.5582 18.2095 25.6947 16.1165C25.8759 13.3181 25.8915 10.5022 25.718 7.70187L25.7161 7.70577ZM23.0421 15.4735C23.0343 16.2354 22.6191 16.7012 21.9838 16.7012C21.3796 16.7012 20.982 16.2627 20.9781 15.5085C20.9722 13.0395 20.98 10.5724 20.9976 8.10331C21.0015 7.48556 21.4322 7.06463 21.9955 7.06853C22.6016 7.07243 23.0284 7.49336 23.0343 8.14618C23.0479 9.39143 23.0382 10.6367 23.0382 11.8819H23.0421C23.0421 13.0785 23.0499 14.2769 23.0382 15.4735H23.0421Z" fill="#059B7E"/>
</svg>
